<?xml version="1.0" encoding="UTF-8" standalone="no"?>
<!DOCTYPE svg PUBLIC "-//W3C//DTD SVG 1.1//EN"
 "http://www.w3.org/Graphics/SVG/1.1/DTD/svg11.dtd">
<!-- Generated by graphviz version 9.0.0 (0)
 -->
<!-- Title: finite_state_machine Pages: 1 -->
<svg width="377pt" height="242pt"
 viewBox="0.00 0.00 377.25 242.00" xmlns="http://www.w3.org/2000/svg" xmlns:xlink="http://www.w3.org/1999/xlink">
<g id="graph0" class="graph" transform="scale(1 1) rotate(0) translate(4 238)">
<title>finite_state_machine</title>
<polygon fill="white" stroke="none" points="-4,4 -4,-238 373.25,-238 373.25,4 -4,4"/>
<!-- 0 -->
<g id="node1" class="node">
<title>0</title>
<ellipse fill="none" stroke="black" cx="22" cy="-22" rx="18" ry="18"/>
<ellipse fill="none" stroke="black" cx="22" cy="-22" rx="22" ry="22"/>
<text text-anchor="middle" x="22" y="-16.2" font-family="Helvetica,Arial,sans-serif" font-size="14.00">0</text>
</g>
<!-- 6 -->
<g id="node4" class="node">
<title>6</title>
<ellipse fill="none" stroke="black" cx="131.75" cy="-103" rx="18" ry="18"/>
<text text-anchor="middle" x="131.75" y="-97.2" font-family="Helvetica,Arial,sans-serif" font-size="14.00">6</text>
</g>
<!-- 0&#45;&gt;6 -->
<g id="edge7" class="edge">
<title>0&#45;&gt;6</title>
<path fill="none" stroke="black" d="M40.31,-35.01C58.61,-48.77 87.58,-70.54 107.78,-85.73"/>
<polygon fill="black" stroke="black" points="105.6,-88.47 115.7,-91.68 109.81,-82.88 105.6,-88.47"/>
<text text-anchor="middle" x="78.88" y="-75.7" font-family="Helvetica,Arial,sans-serif" font-size="14.00">10/10</text>
</g>
<!-- 5 -->
<g id="node5" class="node">
<title>5</title>
<ellipse fill="none" stroke="black" cx="347.25" cy="-103" rx="18" ry="18"/>
<text text-anchor="middle" x="347.25" y="-97.2" font-family="Helvetica,Arial,sans-serif" font-size="14.00">5</text>
</g>
<!-- 0&#45;&gt;5 -->
<g id="edge6" class="edge">
<title>0&#45;&gt;5</title>
<path fill="none" stroke="black" d="M44.28,-20.92C93.42,-19.31 217.41,-20.35 307.25,-65 314.93,-68.82 322.07,-74.7 328.08,-80.71"/>
<polygon fill="black" stroke="black" points="325.15,-82.7 334.5,-87.69 330.3,-77.96 325.15,-82.7"/>
<text text-anchor="middle" x="184.62" y="-33.7" font-family="Helvetica,Arial,sans-serif" font-size="14.00">10/10</text>
</g>
<!-- 1 -->
<g id="node2" class="node">
<title>1</title>
<ellipse fill="none" stroke="black" cx="347.25" cy="-212" rx="18" ry="18"/>
<ellipse fill="none" stroke="black" cx="347.25" cy="-212" rx="22" ry="22"/>
<text text-anchor="middle" x="347.25" y="-206.2" font-family="Helvetica,Arial,sans-serif" font-size="14.00">1</text>
</g>
<!-- 4 -->
<g id="node3" class="node">
<title>4</title>
<ellipse fill="none" stroke="black" cx="237.5" cy="-174" rx="18" ry="18"/>
<text text-anchor="middle" x="237.5" y="-168.2" font-family="Helvetica,Arial,sans-serif" font-size="14.00">4</text>
</g>
<!-- 4&#45;&gt;1 -->
<g id="edge1" class="edge">
<title>4&#45;&gt;1</title>
<path fill="none" stroke="black" d="M253.99,-181.63C260,-184.44 267,-187.54 273.5,-190 286.87,-195.05 301.94,-199.76 314.89,-203.52"/>
<polygon fill="black" stroke="black" points="313.59,-206.79 324.16,-206.15 315.5,-200.06 313.59,-206.79"/>
<text text-anchor="middle" x="290.38" y="-202.7" font-family="Helvetica,Arial,sans-serif" font-size="14.00">20/20</text>
</g>
<!-- 4&#45;&gt;6 -->
<g id="edge2" class="edge">
<title>4&#45;&gt;6</title>
<path fill="none" stroke="black" d="M225.52,-160.19C219.08,-152.69 210.46,-143.62 201.5,-137 188.61,-127.48 172.66,-119.4 159.36,-113.51"/>
<polygon fill="black" stroke="black" points="160.91,-110.36 150.33,-109.68 158.17,-116.81 160.91,-110.36"/>
<text text-anchor="middle" x="184.62" y="-138.7" font-family="Helvetica,Arial,sans-serif" font-size="14.00">0/50</text>
</g>
<!-- 4&#45;&gt;5 -->
<g id="edge3" class="edge">
<title>4&#45;&gt;5</title>
<path fill="none" stroke="black" d="M255.56,-171.41C270.28,-168.55 291.57,-162.82 307.25,-152 316.48,-145.63 324.61,-136.43 331.02,-127.73"/>
<polygon fill="black" stroke="black" points="333.87,-129.75 336.64,-119.53 328.1,-125.8 333.87,-129.75"/>
<text text-anchor="middle" x="290.38" y="-167.7" font-family="Helvetica,Arial,sans-serif" font-size="14.00">0/50</text>
</g>
<!-- 6&#45;&gt;4 -->
<g id="edge9" class="edge">
<title>6&#45;&gt;4</title>
<path fill="none" stroke="black" d="M140.51,-118.75C146.57,-129.53 155.92,-143.38 167.75,-152 179.65,-160.68 195.12,-166.03 208.37,-169.27"/>
<polygon fill="black" stroke="black" points="207.31,-172.62 217.82,-171.3 208.77,-165.78 207.31,-172.62"/>
<text text-anchor="middle" x="184.62" y="-168.7" font-family="Helvetica,Arial,sans-serif" font-size="14.00">0/50</text>
</g>
<!-- 6&#45;&gt;5 -->
<g id="edge8" class="edge">
<title>6&#45;&gt;5</title>
<path fill="none" stroke="black" d="M150.22,-103C186.99,-103 272.64,-103 317.57,-103"/>
<polygon fill="black" stroke="black" points="317.32,-106.5 327.32,-103 317.32,-99.5 317.32,-106.5"/>
<text text-anchor="middle" x="237.5" y="-104.7" font-family="Helvetica,Arial,sans-serif" font-size="14.00">10/50</text>
</g>
<!-- 5&#45;&gt;4 -->
<g id="edge4" class="edge">
<title>5&#45;&gt;4</title>
<path fill="none" stroke="black" d="M329.52,-107.43C313.99,-112.08 290.75,-120.48 273.5,-133 266.88,-137.8 260.71,-144.1 255.44,-150.31"/>
<polygon fill="black" stroke="black" points="252.83,-147.97 249.37,-157.99 258.32,-152.31 252.83,-147.97"/>
<text text-anchor="middle" x="290.38" y="-134.7" font-family="Helvetica,Arial,sans-serif" font-size="14.00">20/50</text>
</g>
<!-- 5&#45;&gt;6 -->
<g id="edge5" class="edge">
<title>5&#45;&gt;6</title>
<path fill="none" stroke="black" d="M331.62,-93.86C308.22,-80.36 260.83,-57.56 219.5,-66 197.79,-70.44 174.78,-80.53 157.92,-89.05"/>
<polygon fill="black" stroke="black" points="156.38,-85.91 149.15,-93.65 159.63,-92.11 156.38,-85.91"/>
<text text-anchor="middle" x="237.5" y="-67.7" font-family="Helvetica,Arial,sans-serif" font-size="14.00">0/50</text>
</g>
</g>
</svg>
