<?xml version="1.0" encoding="UTF-8" standalone="no"?>
<!DOCTYPE svg PUBLIC "-//W3C//DTD SVG 1.1//EN"
 "http://www.w3.org/Graphics/SVG/1.1/DTD/svg11.dtd">
<!-- Generated by graphviz version 9.0.0 (0)
 -->
<!-- Title: finite_state_machine Pages: 1 -->
<svg width="196pt" height="219pt"
 viewBox="0.00 0.00 195.99 218.64" xmlns="http://www.w3.org/2000/svg" xmlns:xlink="http://www.w3.org/1999/xlink">
<g id="graph0" class="graph" transform="scale(1 1) rotate(0) translate(4 214.64)">
<title>finite_state_machine</title>
<polygon fill="white" stroke="none" points="-4,4 -4,-214.64 191.99,-214.64 191.99,4 -4,4"/>
<!-- suzane -->
<g id="node1" class="node">
<title>suzane</title>
<ellipse fill="none" stroke="black" cx="38.67" cy="-171.97" rx="38.67" ry="38.67"/>
<text text-anchor="middle" x="38.67" y="-166.17" font-family="Helvetica,Arial,sans-serif" font-size="14.00">suzane</text>
</g>
<!-- remi -->
<g id="node2" class="node">
<title>remi</title>
<ellipse fill="none" stroke="black" cx="160.04" cy="-146.97" rx="27.95" ry="27.95"/>
<text text-anchor="middle" x="160.04" y="-141.17" font-family="Helvetica,Arial,sans-serif" font-size="14.00">remi</text>
</g>
<!-- suzane&#45;&gt;remi -->
<g id="edge1" class="edge">
<title>suzane&#45;&gt;remi</title>
<path fill="none" stroke="black" d="M76.79,-164.2C90.94,-161.24 107.07,-157.86 121.28,-154.88"/>
<polygon fill="black" stroke="black" points="121.63,-158.38 130.7,-152.91 120.2,-151.53 121.63,-158.38"/>
<text text-anchor="middle" x="104.72" y="-161.67" font-family="Helvetica,Arial,sans-serif" font-size="14.00">8/8</text>
</g>
<!-- cel -->
<g id="node3" class="node">
<title>cel</title>
<ellipse fill="none" stroke="black" cx="38.67" cy="-93.97" rx="21.61" ry="21.61"/>
<text text-anchor="middle" x="38.67" y="-88.17" font-family="Helvetica,Arial,sans-serif" font-size="14.00">cel</text>
</g>
<!-- cel&#45;&gt;remi -->
<g id="edge2" class="edge">
<title>cel&#45;&gt;remi</title>
<path fill="none" stroke="black" d="M58.85,-102.49C76.33,-110.25 102.58,-121.9 123.83,-131.34"/>
<polygon fill="black" stroke="black" points="122.16,-134.43 132.72,-135.29 125,-128.03 122.16,-134.43"/>
<text text-anchor="middle" x="104.72" y="-127.67" font-family="Helvetica,Arial,sans-serif" font-size="14.00">4/8</text>
</g>
<!-- luke -->
<g id="node4" class="node">
<title>luke</title>
<ellipse fill="none" stroke="black" cx="160.04" cy="-57.97" rx="26.49" ry="26.49"/>
<text text-anchor="middle" x="160.04" y="-52.17" font-family="Helvetica,Arial,sans-serif" font-size="14.00">luke</text>
</g>
<!-- cel&#45;&gt;luke -->
<g id="edge3" class="edge">
<title>cel&#45;&gt;luke</title>
<path fill="none" stroke="black" d="M59.92,-87.87C77.21,-82.65 102.48,-75.03 123.18,-68.79"/>
<polygon fill="black" stroke="black" points="124.12,-72.16 132.68,-65.92 122.1,-65.46 124.12,-72.16"/>
<text text-anchor="middle" x="104.72" y="-78.67" font-family="Helvetica,Arial,sans-serif" font-size="14.00">4/8</text>
</g>
<!-- john -->
<g id="node5" class="node">
<title>john</title>
<ellipse fill="none" stroke="black" cx="38.67" cy="-26.97" rx="26.97" ry="26.97"/>
<text text-anchor="middle" x="38.67" y="-21.17" font-family="Helvetica,Arial,sans-serif" font-size="14.00">john</text>
</g>
<!-- john&#45;&gt;luke -->
<g id="edge4" class="edge">
<title>john&#45;&gt;luke</title>
<path fill="none" stroke="black" d="M65.67,-31.83C80.04,-34.7 98.16,-38.62 114.09,-42.97 117.4,-43.88 120.82,-44.88 124.23,-45.94"/>
<polygon fill="black" stroke="black" points="122.9,-49.18 133.49,-48.92 125.04,-42.52 122.9,-49.18"/>
<text text-anchor="middle" x="104.72" y="-44.67" font-family="Helvetica,Arial,sans-serif" font-size="14.00">8/8</text>
</g>
</g>
</svg>
