<?xml version="1.0" encoding="UTF-8" standalone="no"?>
<!DOCTYPE svg PUBLIC "-//W3C//DTD SVG 1.1//EN"
 "http://www.w3.org/Graphics/SVG/1.1/DTD/svg11.dtd">
<!-- Generated by graphviz version 2.43.0 (0)
 -->
<!-- Title: finite_state_machine Pages: 1 -->
<svg width="378pt" height="242pt"
 viewBox="0.00 0.00 378.00 242.00" xmlns="http://www.w3.org/2000/svg" xmlns:xlink="http://www.w3.org/1999/xlink">
<g id="graph0" class="graph" transform="scale(1 1) rotate(0) translate(4 238)">
<title>finite_state_machine</title>
<polygon fill="white" stroke="transparent" points="-4,4 -4,-238 374,-238 374,4 -4,4"/>
<!-- 0 -->
<g id="node1" class="node">
<title>0</title>
<ellipse fill="none" stroke="black" cx="22" cy="-22" rx="18" ry="18"/>
<ellipse fill="none" stroke="black" cx="22" cy="-22" rx="22" ry="22"/>
<text text-anchor="middle" x="22" y="-18.3" font-family="Helvetica,Arial,sans-serif" font-size="14.00">0</text>
</g>
<!-- 2 -->
<g id="node4" class="node">
<title>2</title>
<ellipse fill="none" stroke="black" cx="132" cy="-103" rx="18" ry="18"/>
<text text-anchor="middle" x="132" y="-99.3" font-family="Helvetica,Arial,sans-serif" font-size="14.00">2</text>
</g>
<!-- 0&#45;&gt;2 -->
<g id="edge7" class="edge">
<title>0&#45;&gt;2</title>
<path fill="none" stroke="black" d="M40.35,-35.01C59.03,-49.02 88.78,-71.34 109.07,-86.55"/>
<polygon fill="black" stroke="black" points="107.02,-89.39 117.12,-92.59 111.22,-83.79 107.02,-89.39"/>
<text text-anchor="middle" x="79" y="-77.8" font-family="Helvetica,Arial,sans-serif" font-size="14.00">10/10</text>
</g>
<!-- 3 -->
<g id="node5" class="node">
<title>3</title>
<ellipse fill="none" stroke="black" cx="348" cy="-103" rx="18" ry="18"/>
<text text-anchor="middle" x="348" y="-99.3" font-family="Helvetica,Arial,sans-serif" font-size="14.00">3</text>
</g>
<!-- 0&#45;&gt;3 -->
<g id="edge6" class="edge">
<title>0&#45;&gt;3</title>
<path fill="none" stroke="black" d="M44.34,-20.9C93.6,-19.26 217.92,-20.25 308,-65 315.86,-68.9 323.14,-74.97 329.24,-81.12"/>
<polygon fill="black" stroke="black" points="326.94,-83.79 336.28,-88.8 332.1,-79.06 326.94,-83.79"/>
<text text-anchor="middle" x="185" y="-35.8" font-family="Helvetica,Arial,sans-serif" font-size="14.00">10/10</text>
</g>
<!-- 4 -->
<g id="node2" class="node">
<title>4</title>
<ellipse fill="none" stroke="black" cx="348" cy="-212" rx="18" ry="18"/>
<ellipse fill="none" stroke="black" cx="348" cy="-212" rx="22" ry="22"/>
<text text-anchor="middle" x="348" y="-208.3" font-family="Helvetica,Arial,sans-serif" font-size="14.00">4</text>
</g>
<!-- 1 -->
<g id="node3" class="node">
<title>1</title>
<ellipse fill="none" stroke="black" cx="238" cy="-174" rx="18" ry="18"/>
<text text-anchor="middle" x="238" y="-170.3" font-family="Helvetica,Arial,sans-serif" font-size="14.00">1</text>
</g>
<!-- 1&#45;&gt;4 -->
<g id="edge1" class="edge">
<title>1&#45;&gt;4</title>
<path fill="none" stroke="black" d="M254.49,-181.63C260.5,-184.45 267.5,-187.55 274,-190 287.92,-195.25 303.68,-200.13 316.99,-203.95"/>
<polygon fill="black" stroke="black" points="316.04,-207.32 326.61,-206.66 317.93,-200.58 316.04,-207.32"/>
<text text-anchor="middle" x="291" y="-204.8" font-family="Helvetica,Arial,sans-serif" font-size="14.00">20/20</text>
</g>
<!-- 1&#45;&gt;2 -->
<g id="edge2" class="edge">
<title>1&#45;&gt;2</title>
<path fill="none" stroke="black" d="M226.03,-160.18C219.58,-152.68 210.97,-143.61 202,-137 188.68,-127.18 172.09,-118.9 158.51,-112.97"/>
<polygon fill="black" stroke="black" points="159.83,-109.72 149.25,-109.08 157.11,-116.18 159.83,-109.72"/>
<text text-anchor="middle" x="185" y="-140.8" font-family="Helvetica,Arial,sans-serif" font-size="14.00">0/60</text>
</g>
<!-- 1&#45;&gt;3 -->
<g id="edge3" class="edge">
<title>1&#45;&gt;3</title>
<path fill="none" stroke="black" d="M255.83,-171.48C270.61,-168.64 292.16,-162.92 308,-152 317.63,-145.36 326.06,-135.64 332.59,-126.61"/>
<polygon fill="black" stroke="black" points="335.52,-128.52 338.25,-118.28 329.73,-124.59 335.52,-128.52"/>
<text text-anchor="middle" x="291" y="-170.8" font-family="Helvetica,Arial,sans-serif" font-size="14.00">0/60</text>
</g>
<!-- 2&#45;&gt;1 -->
<g id="edge8" class="edge">
<title>2&#45;&gt;1</title>
<path fill="none" stroke="black" d="M140.76,-118.76C146.81,-129.54 156.17,-143.38 168,-152 180.27,-160.94 196.31,-166.34 209.84,-169.55"/>
<polygon fill="black" stroke="black" points="209.53,-173.06 220.03,-171.68 210.96,-166.21 209.53,-173.06"/>
<text text-anchor="middle" x="185" y="-170.8" font-family="Helvetica,Arial,sans-serif" font-size="14.00">10/60</text>
</g>
<!-- 2&#45;&gt;3 -->
<g id="edge9" class="edge">
<title>2&#45;&gt;3</title>
<path fill="none" stroke="black" d="M150.15,-103C187.17,-103 274.82,-103 319.61,-103"/>
<polygon fill="black" stroke="black" points="319.77,-106.5 329.77,-103 319.77,-99.5 319.77,-106.5"/>
<text text-anchor="middle" x="238" y="-106.8" font-family="Helvetica,Arial,sans-serif" font-size="14.00">0/60</text>
</g>
<!-- 3&#45;&gt;1 -->
<g id="edge4" class="edge">
<title>3&#45;&gt;1</title>
<path fill="none" stroke="black" d="M330.51,-107.33C314.93,-111.95 291.42,-120.38 274,-133 267.07,-138.02 260.63,-144.68 255.21,-151.17"/>
<polygon fill="black" stroke="black" points="252.35,-149.14 248.93,-159.17 257.86,-153.47 252.35,-149.14"/>
<text text-anchor="middle" x="291" y="-136.8" font-family="Helvetica,Arial,sans-serif" font-size="14.00">10/60</text>
</g>
<!-- 3&#45;&gt;2 -->
<g id="edge5" class="edge">
<title>3&#45;&gt;2</title>
<path fill="none" stroke="black" d="M332.34,-93.86C308.9,-80.37 261.4,-57.56 220,-66 197.82,-70.52 174.28,-80.91 157.29,-89.53"/>
<polygon fill="black" stroke="black" points="155.34,-86.61 148.1,-94.35 158.59,-92.81 155.34,-86.61"/>
<text text-anchor="middle" x="238" y="-69.8" font-family="Helvetica,Arial,sans-serif" font-size="14.00">0/60</text>
</g>
</g>
</svg>
