<?xml version="1.0" encoding="UTF-8" standalone="no"?>
<!DOCTYPE svg PUBLIC "-//W3C//DTD SVG 1.1//EN"
 "http://www.w3.org/Graphics/SVG/1.1/DTD/svg11.dtd">
<!-- Generated by graphviz version 9.0.0 (0)
 -->
<!-- Title: finite_state_machine Pages: 1 -->
<svg width="369pt" height="194pt"
 viewBox="0.00 0.00 369.25 194.00" xmlns="http://www.w3.org/2000/svg" xmlns:xlink="http://www.w3.org/1999/xlink">
<g id="graph0" class="graph" transform="scale(1 1) rotate(0) translate(4 190)">
<title>finite_state_machine</title>
<polygon fill="white" stroke="none" points="-4,4 -4,-190 365.25,-190 365.25,4 -4,4"/>
<!-- 0 -->
<g id="node1" class="node">
<title>0</title>
<ellipse fill="none" stroke="black" cx="22" cy="-22" rx="18" ry="18"/>
<ellipse fill="none" stroke="black" cx="22" cy="-22" rx="22" ry="22"/>
<text text-anchor="middle" x="22" y="-16.2" font-family="Helvetica,Arial,sans-serif" font-size="14.00">0</text>
</g>
<!-- 1 -->
<g id="node2" class="node">
<title>1</title>
<ellipse fill="none" stroke="black" cx="22" cy="-84" rx="18" ry="18"/>
<ellipse fill="none" stroke="black" cx="22" cy="-84" rx="22" ry="22"/>
<text text-anchor="middle" x="22" y="-78.2" font-family="Helvetica,Arial,sans-serif" font-size="14.00">1</text>
</g>
<!-- 3 -->
<g id="node3" class="node">
<title>3</title>
<ellipse fill="none" stroke="black" cx="22" cy="-142" rx="18" ry="18"/>
<text text-anchor="middle" x="22" y="-136.2" font-family="Helvetica,Arial,sans-serif" font-size="14.00">3</text>
</g>
<!-- 2 -->
<g id="node4" class="node">
<title>2</title>
<ellipse fill="none" stroke="black" cx="131.75" cy="-168" rx="18" ry="18"/>
<text text-anchor="middle" x="131.75" y="-162.2" font-family="Helvetica,Arial,sans-serif" font-size="14.00">2</text>
</g>
<!-- 3&#45;&gt;2 -->
<g id="edge1" class="edge">
<title>3&#45;&gt;2</title>
<path fill="none" stroke="black" d="M39.84,-146.06C56.76,-150.15 83.13,-156.51 103.12,-161.33"/>
<polygon fill="black" stroke="black" points="102.02,-164.67 112.56,-163.61 103.66,-157.86 102.02,-164.67"/>
<text text-anchor="middle" x="78.88" y="-159.7" font-family="Helvetica,Arial,sans-serif" font-size="14.00">20/50</text>
</g>
<!-- 6 -->
<g id="node5" class="node">
<title>6</title>
<ellipse fill="none" stroke="black" cx="237.5" cy="-168" rx="18" ry="18"/>
<text text-anchor="middle" x="237.5" y="-162.2" font-family="Helvetica,Arial,sans-serif" font-size="14.00">6</text>
</g>
<!-- 2&#45;&gt;6 -->
<g id="edge2" class="edge">
<title>2&#45;&gt;6</title>
<path fill="none" stroke="black" d="M149.88,-168C165.65,-168 189.35,-168 207.97,-168"/>
<polygon fill="black" stroke="black" points="207.83,-171.5 217.83,-168 207.83,-164.5 207.83,-171.5"/>
<text text-anchor="middle" x="184.62" y="-169.7" font-family="Helvetica,Arial,sans-serif" font-size="14.00">10/50</text>
</g>
<!-- 5 -->
<g id="node6" class="node">
<title>5</title>
<ellipse fill="none" stroke="black" cx="343.25" cy="-138" rx="18" ry="18"/>
<text text-anchor="middle" x="343.25" y="-132.2" font-family="Helvetica,Arial,sans-serif" font-size="14.00">5</text>
</g>
<!-- 6&#45;&gt;5 -->
<g id="edge3" class="edge">
<title>6&#45;&gt;5</title>
<path fill="none" stroke="black" d="M255.17,-163.18C271.2,-158.54 295.73,-151.45 314.67,-145.97"/>
<polygon fill="black" stroke="black" points="315.53,-149.37 324.17,-143.23 313.59,-142.64 315.53,-149.37"/>
<text text-anchor="middle" x="290.38" y="-158.7" font-family="Helvetica,Arial,sans-serif" font-size="14.00">20/50</text>
</g>
<!-- 5&#45;&gt;3 -->
<g id="edge4" class="edge">
<title>5&#45;&gt;3</title>
<path fill="none" stroke="black" d="M325,-138.22C272.81,-138.87 116.22,-140.83 51.48,-141.64"/>
<polygon fill="black" stroke="black" points="51.63,-138.14 41.68,-141.77 51.72,-145.14 51.63,-138.14"/>
<text text-anchor="middle" x="184.62" y="-141.7" font-family="Helvetica,Arial,sans-serif" font-size="14.00">10/50</text>
</g>
</g>
</svg>
