<?xml version="1.0" encoding="UTF-8" standalone="no"?>
<!DOCTYPE svg PUBLIC "-//W3C//DTD SVG 1.1//EN"
 "http://www.w3.org/Graphics/SVG/1.1/DTD/svg11.dtd">
<!-- Generated by graphviz version 2.43.0 (0)
 -->
<!-- Title: finite_state_machine Pages: 1 -->
<svg width="456pt" height="154pt"
 viewBox="0.00 0.00 456.00 154.00" xmlns="http://www.w3.org/2000/svg" xmlns:xlink="http://www.w3.org/1999/xlink">
<g id="graph0" class="graph" transform="scale(1 1) rotate(0) translate(4 150)">
<title>finite_state_machine</title>
<polygon fill="white" stroke="transparent" points="-4,4 -4,-150 452,-150 452,4 -4,4"/>
<!-- 0 -->
<g id="node1" class="node">
<title>0</title>
<ellipse fill="none" stroke="black" cx="22" cy="-77" rx="18" ry="18"/>
<ellipse fill="none" stroke="black" cx="22" cy="-77" rx="22" ry="22"/>
<text text-anchor="middle" x="22" y="-73.3" font-family="Helvetica,Arial,sans-serif" font-size="14.00">0</text>
</g>
<!-- 2 -->
<g id="node3" class="node">
<title>2</title>
<ellipse fill="none" stroke="black" cx="224" cy="-128" rx="18" ry="18"/>
<text text-anchor="middle" x="224" y="-124.3" font-family="Helvetica,Arial,sans-serif" font-size="14.00">2</text>
</g>
<!-- 0&#45;&gt;2 -->
<g id="edge1" class="edge">
<title>0&#45;&gt;2</title>
<path fill="none" stroke="black" d="M41.77,-86.89C48.1,-90.03 55.27,-93.36 62,-96 104.8,-112.79 115.64,-118.53 161,-126 172.24,-127.85 184.77,-128.51 195.61,-128.65"/>
<polygon fill="black" stroke="black" points="195.78,-132.15 205.78,-128.65 195.77,-125.15 195.78,-132.15"/>
<text text-anchor="middle" x="125" y="-125.8" font-family="Helvetica,Arial,sans-serif" font-size="14.00">0/8</text>
</g>
<!-- 3 -->
<g id="node4" class="node">
<title>3</title>
<ellipse fill="none" stroke="black" cx="125" cy="-77" rx="18" ry="18"/>
<text text-anchor="middle" x="125" y="-73.3" font-family="Helvetica,Arial,sans-serif" font-size="14.00">3</text>
</g>
<!-- 0&#45;&gt;3 -->
<g id="edge2" class="edge">
<title>0&#45;&gt;3</title>
<path fill="none" stroke="black" d="M44.42,-77C59.71,-77 80.41,-77 96.86,-77"/>
<polygon fill="black" stroke="black" points="96.96,-80.5 106.96,-77 96.96,-73.5 96.96,-80.5"/>
<text text-anchor="middle" x="75.5" y="-80.8" font-family="Helvetica,Arial,sans-serif" font-size="14.00">0/10</text>
</g>
<!-- 1 -->
<g id="node5" class="node">
<title>1</title>
<ellipse fill="none" stroke="black" cx="224" cy="-18" rx="18" ry="18"/>
<text text-anchor="middle" x="224" y="-14.3" font-family="Helvetica,Arial,sans-serif" font-size="14.00">1</text>
</g>
<!-- 0&#45;&gt;1 -->
<g id="edge3" class="edge">
<title>0&#45;&gt;1</title>
<path fill="none" stroke="black" d="M41.29,-65.71C57.85,-56.02 83.2,-42.48 107,-35 136.47,-25.74 171.76,-21.48 195.62,-19.55"/>
<polygon fill="black" stroke="black" points="195.99,-23.03 205.72,-18.82 195.49,-16.05 195.99,-23.03"/>
<text text-anchor="middle" x="125" y="-38.8" font-family="Helvetica,Arial,sans-serif" font-size="14.00">0/7</text>
</g>
<!-- 4 -->
<g id="node2" class="node">
<title>4</title>
<ellipse fill="none" stroke="black" cx="327" cy="-73" rx="18" ry="18"/>
<ellipse fill="none" stroke="black" cx="327" cy="-73" rx="22" ry="22"/>
<text text-anchor="middle" x="327" y="-69.3" font-family="Helvetica,Arial,sans-serif" font-size="14.00">4</text>
</g>
<!-- 5 -->
<g id="node6" class="node">
<title>5</title>
<ellipse fill="none" stroke="black" cx="430" cy="-30" rx="18" ry="18"/>
<text text-anchor="middle" x="430" y="-26.3" font-family="Helvetica,Arial,sans-serif" font-size="14.00">5</text>
</g>
<!-- 4&#45;&gt;5 -->
<g id="edge10" class="edge">
<title>4&#45;&gt;5</title>
<path fill="none" stroke="black" d="M347.47,-64.71C363.48,-57.9 386.27,-48.19 403.69,-40.78"/>
<polygon fill="black" stroke="black" points="405.4,-43.85 413.23,-36.71 402.66,-37.41 405.4,-43.85"/>
<text text-anchor="middle" x="380.5" y="-58.8" font-family="Helvetica,Arial,sans-serif" font-size="14.00">0/14</text>
</g>
<!-- 2&#45;&gt;4 -->
<g id="edge4" class="edge">
<title>2&#45;&gt;4</title>
<path fill="none" stroke="black" d="M240.34,-119.65C255.73,-111.27 279.77,-98.18 298.47,-87.99"/>
<polygon fill="black" stroke="black" points="300.31,-90.97 307.42,-83.12 296.97,-84.83 300.31,-90.97"/>
<text text-anchor="middle" x="273.5" y="-111.8" font-family="Helvetica,Arial,sans-serif" font-size="14.00">0/12</text>
</g>
<!-- 3&#45;&gt;4 -->
<g id="edge5" class="edge">
<title>3&#45;&gt;4</title>
<path fill="none" stroke="black" d="M143.05,-76.66C176.67,-75.99 251.93,-74.48 294.71,-73.63"/>
<polygon fill="black" stroke="black" points="294.91,-77.12 304.84,-73.42 294.77,-70.12 294.91,-77.12"/>
<text text-anchor="middle" x="224" y="-78.8" font-family="Helvetica,Arial,sans-serif" font-size="14.00">0/5</text>
</g>
<!-- 3&#45;&gt;2 -->
<g id="edge6" class="edge">
<title>3&#45;&gt;2</title>
<path fill="none" stroke="black" d="M141.16,-84.97C156.44,-93.01 180.29,-105.55 198.31,-115.02"/>
<polygon fill="black" stroke="black" points="197.15,-118.36 207.63,-119.92 200.41,-112.17 197.15,-118.36"/>
<text text-anchor="middle" x="174.5" y="-111.8" font-family="Helvetica,Arial,sans-serif" font-size="14.00">0/2</text>
</g>
<!-- 3&#45;&gt;1 -->
<g id="edge7" class="edge">
<title>3&#45;&gt;1</title>
<path fill="none" stroke="black" d="M138.72,-65.19C145.12,-59.59 153.17,-53.03 161,-48 172.51,-40.6 186.13,-33.82 197.66,-28.58"/>
<polygon fill="black" stroke="black" points="199.41,-31.64 207.16,-24.4 196.59,-25.23 199.41,-31.64"/>
<text text-anchor="middle" x="174.5" y="-51.8" font-family="Helvetica,Arial,sans-serif" font-size="14.00">0/11</text>
</g>
<!-- 1&#45;&gt;4 -->
<g id="edge8" class="edge">
<title>1&#45;&gt;4</title>
<path fill="none" stroke="black" d="M240.81,-25.01C253.5,-30.8 271.66,-39.41 287,-48 291.25,-50.38 295.67,-53.03 299.95,-55.7"/>
<polygon fill="black" stroke="black" points="298.1,-58.67 308.41,-61.09 301.86,-52.77 298.1,-58.67"/>
<text text-anchor="middle" x="273.5" y="-51.8" font-family="Helvetica,Arial,sans-serif" font-size="14.00">0/1</text>
</g>
<!-- 1&#45;&gt;5 -->
<g id="edge9" class="edge">
<title>1&#45;&gt;5</title>
<path fill="none" stroke="black" d="M242.04,-19C277.37,-21.08 358.84,-25.87 401.63,-28.39"/>
<polygon fill="black" stroke="black" points="401.67,-31.9 411.86,-28.99 402.09,-24.91 401.67,-31.9"/>
<text text-anchor="middle" x="327" y="-29.8" font-family="Helvetica,Arial,sans-serif" font-size="14.00">0/21</text>
</g>
</g>
</svg>
