<?xml version="1.0" encoding="UTF-8" standalone="no"?>
<!DOCTYPE svg PUBLIC "-//W3C//DTD SVG 1.1//EN"
 "http://www.w3.org/Graphics/SVG/1.1/DTD/svg11.dtd">
<!-- Generated by graphviz version 9.0.0 (0)
 -->
<!-- Title: finite_state_machine Pages: 1 -->
<svg width="470pt" height="137pt"
 viewBox="0.00 0.00 470.08 136.93" xmlns="http://www.w3.org/2000/svg" xmlns:xlink="http://www.w3.org/1999/xlink">
<g id="graph0" class="graph" transform="scale(1 1) rotate(0) translate(4 132.93)">
<title>finite_state_machine</title>
<polygon fill="white" stroke="none" points="-4,4 -4,-132.93 466.08,-132.93 466.08,4 -4,4"/>
<!-- lucy -->
<g id="node1" class="node">
<title>lucy</title>
<ellipse fill="none" stroke="black" cx="26" cy="-30.87" rx="26" ry="26"/>
<text text-anchor="middle" x="26" y="-25.07" font-family="Helvetica,Arial,sans-serif" font-size="14.00">lucy</text>
</g>
<!-- luke -->
<g id="node2" class="node">
<title>luke</title>
<ellipse fill="none" stroke="black" cx="148.23" cy="-72.87" rx="26.49" ry="26.49"/>
<text text-anchor="middle" x="148.23" y="-67.07" font-family="Helvetica,Arial,sans-serif" font-size="14.00">luke</text>
</g>
<!-- lucy&#45;&gt;luke -->
<g id="edge1" class="edge">
<title>lucy&#45;&gt;luke</title>
<path fill="none" stroke="black" d="M51.04,-39.27C68.54,-45.38 92.5,-53.75 112.13,-60.61"/>
<polygon fill="black" stroke="black" points="110.79,-63.85 121.39,-63.85 113.1,-57.24 110.79,-63.85"/>
<text text-anchor="middle" x="86.87" y="-57.57" font-family="Helvetica,Arial,sans-serif" font-size="14.00">20/50</text>
</g>
<!-- leonidas -->
<g id="node3" class="node">
<title>leonidas</title>
<ellipse fill="none" stroke="black" cx="287.52" cy="-85.87" rx="43.06" ry="43.06"/>
<text text-anchor="middle" x="287.52" y="-80.07" font-family="Helvetica,Arial,sans-serif" font-size="14.00">leonidas</text>
</g>
<!-- luke&#45;&gt;leonidas -->
<g id="edge2" class="edge">
<title>luke&#45;&gt;leonidas</title>
<path fill="none" stroke="black" d="M175.05,-75.32C191.35,-76.86 213.01,-78.91 232.9,-80.8"/>
<polygon fill="black" stroke="black" points="232.56,-84.28 242.85,-81.74 233.22,-77.31 232.56,-84.28"/>
<text text-anchor="middle" x="209.59" y="-81.57" font-family="Helvetica,Arial,sans-serif" font-size="14.00">10/50</text>
</g>
<!-- lionel -->
<g id="node4" class="node">
<title>lionel</title>
<ellipse fill="none" stroke="black" cx="431.21" cy="-30.87" rx="30.87" ry="30.87"/>
<text text-anchor="middle" x="431.21" y="-25.07" font-family="Helvetica,Arial,sans-serif" font-size="14.00">lionel</text>
</g>
<!-- leonidas&#45;&gt;lionel -->
<g id="edge3" class="edge">
<title>leonidas&#45;&gt;lionel</title>
<path fill="none" stroke="black" d="M327.99,-70.55C347.89,-62.83 371.92,-53.5 391.68,-45.83"/>
<polygon fill="black" stroke="black" points="392.7,-49.18 400.76,-42.3 390.17,-42.66 392.7,-49.18"/>
<text text-anchor="middle" x="365.46" y="-62.57" font-family="Helvetica,Arial,sans-serif" font-size="14.00">20/50</text>
</g>
<!-- lionel&#45;&gt;lucy -->
<g id="edge4" class="edge">
<title>lionel&#45;&gt;lucy</title>
<path fill="none" stroke="black" d="M399.87,-30.87C327,-30.87 142.25,-30.87 63.48,-30.87"/>
<polygon fill="black" stroke="black" points="63.73,-27.37 53.73,-30.87 63.73,-34.37 63.73,-27.37"/>
<text text-anchor="middle" x="209.59" y="-32.57" font-family="Helvetica,Arial,sans-serif" font-size="14.00">10/50</text>
</g>
</g>
</svg>
