<?xml version="1.0" encoding="UTF-8" standalone="no"?>
<!DOCTYPE svg PUBLIC "-//W3C//DTD SVG 1.1//EN"
 "http://www.w3.org/Graphics/SVG/1.1/DTD/svg11.dtd">
<!-- Generated by graphviz version 2.43.0 (0)
 -->
<!-- Title: finite_state_machine Pages: 1 -->
<svg width="757pt" height="435pt"
 viewBox="0.00 0.00 757.00 435.00" xmlns="http://www.w3.org/2000/svg" xmlns:xlink="http://www.w3.org/1999/xlink">
<g id="graph0" class="graph" transform="scale(1 1) rotate(0) translate(4 431)">
<title>finite_state_machine</title>
<polygon fill="white" stroke="transparent" points="-4,4 -4,-431 753,-431 753,4 -4,4"/>
<!-- 0 -->
<g id="node1" class="node">
<title>0</title>
<ellipse fill="none" stroke="black" cx="22" cy="-91" rx="18" ry="18"/>
<ellipse fill="none" stroke="black" cx="22" cy="-91" rx="22" ry="22"/>
<text text-anchor="middle" x="22" y="-87.3" font-family="Helvetica,Arial,sans-serif" font-size="14.00">0</text>
</g>
<!-- 7 -->
<g id="node5" class="node">
<title>7</title>
<ellipse fill="none" stroke="black" cx="129" cy="-168" rx="18" ry="18"/>
<text text-anchor="middle" x="129" y="-164.3" font-family="Helvetica,Arial,sans-serif" font-size="14.00">7</text>
</g>
<!-- 0&#45;&gt;7 -->
<g id="edge19" class="edge">
<title>0&#45;&gt;7</title>
<path fill="none" stroke="black" d="M33.52,-109.98C40.4,-120.91 50.27,-134.18 62,-143 73.67,-151.77 88.77,-157.8 101.59,-161.73"/>
<polygon fill="black" stroke="black" points="100.69,-165.11 111.26,-164.44 102.58,-158.37 100.69,-165.11"/>
<text text-anchor="middle" x="77.5" y="-161.8" font-family="Helvetica,Arial,sans-serif" font-size="14.00">1435</text>
</g>
<!-- 5 -->
<g id="node6" class="node">
<title>5</title>
<ellipse fill="none" stroke="black" cx="731" cy="-243" rx="18" ry="18"/>
<text text-anchor="middle" x="731" y="-239.3" font-family="Helvetica,Arial,sans-serif" font-size="14.00">5</text>
</g>
<!-- 0&#45;&gt;5 -->
<g id="edge21" class="edge">
<title>0&#45;&gt;5</title>
<path fill="none" stroke="black" d="M25.34,-112.81C33.68,-185.06 64.89,-412 128,-412 128,-412 128,-412 629,-412 693.98,-412 718.15,-318.79 726.29,-270.82"/>
<polygon fill="black" stroke="black" points="729.77,-271.19 727.87,-260.77 722.86,-270.1 729.77,-271.19"/>
<text text-anchor="middle" x="366.5" y="-415.8" font-family="Helvetica,Arial,sans-serif" font-size="14.00">343</text>
</g>
<!-- 8 -->
<g id="node10" class="node">
<title>8</title>
<ellipse fill="none" stroke="black" cx="129" cy="-18" rx="18" ry="18"/>
<text text-anchor="middle" x="129" y="-14.3" font-family="Helvetica,Arial,sans-serif" font-size="14.00">8</text>
</g>
<!-- 0&#45;&gt;8 -->
<g id="edge20" class="edge">
<title>0&#45;&gt;8</title>
<path fill="none" stroke="black" d="M35.49,-73.02C42.47,-63.99 51.8,-53.42 62,-46 73.99,-37.28 89.12,-30.61 101.86,-25.97"/>
<polygon fill="black" stroke="black" points="103.14,-29.23 111.47,-22.69 100.87,-22.61 103.14,-29.23"/>
<text text-anchor="middle" x="77.5" y="-49.8" font-family="Helvetica,Arial,sans-serif" font-size="14.00">464</text>
</g>
<!-- 4 -->
<g id="node2" class="node">
<title>4</title>
<ellipse fill="none" stroke="black" cx="521" cy="-260" rx="18" ry="18"/>
<ellipse fill="none" stroke="black" cx="521" cy="-260" rx="22" ry="22"/>
<text text-anchor="middle" x="521" y="-256.3" font-family="Helvetica,Arial,sans-serif" font-size="14.00">4</text>
</g>
<!-- 9 -->
<g id="node4" class="node">
<title>9</title>
<ellipse fill="none" stroke="black" cx="414" cy="-243" rx="18" ry="18"/>
<text text-anchor="middle" x="414" y="-239.3" font-family="Helvetica,Arial,sans-serif" font-size="14.00">9</text>
</g>
<!-- 4&#45;&gt;9 -->
<g id="edge10" class="edge">
<title>4&#45;&gt;9</title>
<path fill="none" stroke="black" d="M501.01,-250.55C494.79,-247.91 487.74,-245.38 481,-244 468.45,-241.43 454.28,-240.91 442.29,-241.14"/>
<polygon fill="black" stroke="black" points="441.87,-237.66 432.01,-241.53 442.13,-244.65 441.87,-237.66"/>
<text text-anchor="middle" x="465.5" y="-247.8" font-family="Helvetica,Arial,sans-serif" font-size="14.00">766</text>
</g>
<!-- 4&#45;&gt;5 -->
<g id="edge11" class="edge">
<title>4&#45;&gt;5</title>
<path fill="none" stroke="black" d="M541.5,-251.88C559.06,-245.03 585.76,-235.76 610,-232 641.87,-227.05 678.88,-232.05 703.28,-236.82"/>
<polygon fill="black" stroke="black" points="702.72,-240.27 713.22,-238.88 704.14,-233.42 702.72,-240.27"/>
<text text-anchor="middle" x="628" y="-235.8" font-family="Helvetica,Arial,sans-serif" font-size="14.00">1106</text>
</g>
<!-- 2 -->
<g id="node9" class="node">
<title>2</title>
<ellipse fill="none" stroke="black" cx="628" cy="-330" rx="18" ry="18"/>
<text text-anchor="middle" x="628" y="-326.3" font-family="Helvetica,Arial,sans-serif" font-size="14.00">2</text>
</g>
<!-- 4&#45;&gt;2 -->
<g id="edge12" class="edge">
<title>4&#45;&gt;2</title>
<path fill="none" stroke="black" d="M540.47,-270.62C554.78,-279.02 574.98,-291.26 592,-303 596.47,-306.08 601.13,-309.52 605.55,-312.88"/>
<polygon fill="black" stroke="black" points="603.57,-315.78 613.62,-319.14 607.87,-310.25 603.57,-315.78"/>
<text text-anchor="middle" x="576.5" y="-306.8" font-family="Helvetica,Arial,sans-serif" font-size="14.00">1364</text>
</g>
<!-- 1 -->
<g id="node3" class="node">
<title>1</title>
<ellipse fill="none" stroke="black" cx="319" cy="-188" rx="18" ry="18"/>
<text text-anchor="middle" x="319" y="-184.3" font-family="Helvetica,Arial,sans-serif" font-size="14.00">1</text>
</g>
<!-- 1&#45;&gt;9 -->
<g id="edge1" class="edge">
<title>1&#45;&gt;9</title>
<path fill="none" stroke="black" d="M331.63,-201.22C338.01,-207.85 346.36,-215.59 355,-221 364.72,-227.09 376.39,-231.92 386.71,-235.48"/>
<polygon fill="black" stroke="black" points="385.86,-238.88 396.45,-238.62 388.01,-232.22 385.86,-238.88"/>
<text text-anchor="middle" x="366.5" y="-235.8" font-family="Helvetica,Arial,sans-serif" font-size="14.00">524</text>
</g>
<!-- 1&#45;&gt;7 -->
<g id="edge2" class="edge">
<title>1&#45;&gt;7</title>
<path fill="none" stroke="black" d="M300.89,-186.18C268.18,-182.7 196.53,-175.08 157.19,-170.89"/>
<polygon fill="black" stroke="black" points="157.33,-167.39 147.02,-169.81 156.59,-174.35 157.33,-167.39"/>
<text text-anchor="middle" x="224" y="-182.8" font-family="Helvetica,Arial,sans-serif" font-size="14.00">811</text>
</g>
<!-- 1&#45;&gt;5 -->
<g id="edge3" class="edge">
<title>1&#45;&gt;5</title>
<path fill="none" stroke="black" d="M330.25,-173.79C345.75,-154.12 377.18,-121 413,-121 413,-121 413,-121 629,-121 662.63,-121 672.69,-132.83 695,-158 709.58,-174.45 718.6,-197.8 723.83,-215.87"/>
<polygon fill="black" stroke="black" points="720.45,-216.79 726.41,-225.55 727.21,-214.98 720.45,-216.79"/>
<text text-anchor="middle" x="521" y="-124.8" font-family="Helvetica,Arial,sans-serif" font-size="14.00">879</text>
</g>
<!-- 6 -->
<g id="node7" class="node">
<title>6</title>
<ellipse fill="none" stroke="black" cx="224" cy="-259" rx="18" ry="18"/>
<text text-anchor="middle" x="224" y="-255.3" font-family="Helvetica,Arial,sans-serif" font-size="14.00">6</text>
</g>
<!-- 1&#45;&gt;6 -->
<g id="edge4" class="edge">
<title>1&#45;&gt;6</title>
<path fill="none" stroke="black" d="M309.83,-204.02C303.71,-214.64 294.43,-228.19 283,-237 273.76,-244.12 261.94,-249.16 251.4,-252.6"/>
<polygon fill="black" stroke="black" points="250.4,-249.24 241.8,-255.42 252.38,-255.96 250.4,-249.24"/>
<text text-anchor="middle" x="271.5" y="-252.8" font-family="Helvetica,Arial,sans-serif" font-size="14.00">954</text>
</g>
<!-- 9&#45;&gt;4 -->
<g id="edge7" class="edge">
<title>9&#45;&gt;4</title>
<path fill="none" stroke="black" d="M424.42,-228.24C430.58,-220.02 439.44,-210.55 450,-206 462.65,-200.55 468.73,-199.73 481,-206 491.64,-211.44 500.05,-221.29 506.29,-231.1"/>
<polygon fill="black" stroke="black" points="503.38,-233.07 511.41,-239.98 509.44,-229.57 503.38,-233.07"/>
<text text-anchor="middle" x="465.5" y="-209.8" font-family="Helvetica,Arial,sans-serif" font-size="14.00">766</text>
</g>
<!-- 9&#45;&gt;1 -->
<g id="edge5" class="edge">
<title>9&#45;&gt;1</title>
<path fill="none" stroke="black" d="M403.73,-228.01C397.5,-219.16 388.53,-208.46 378,-202 368.76,-196.33 357.38,-192.96 347.16,-190.95"/>
<polygon fill="black" stroke="black" points="347.49,-187.46 337.06,-189.31 346.37,-194.37 347.49,-187.46"/>
<text text-anchor="middle" x="366.5" y="-205.8" font-family="Helvetica,Arial,sans-serif" font-size="14.00">524</text>
</g>
<!-- 3 -->
<g id="node8" class="node">
<title>3</title>
<ellipse fill="none" stroke="black" cx="521" cy="-329" rx="18" ry="18"/>
<text text-anchor="middle" x="521" y="-325.3" font-family="Helvetica,Arial,sans-serif" font-size="14.00">3</text>
</g>
<!-- 9&#45;&gt;3 -->
<g id="edge6" class="edge">
<title>9&#45;&gt;3</title>
<path fill="none" stroke="black" d="M430.66,-250.31C444.69,-257.29 465.4,-268.7 481,-282 489.26,-289.05 497.16,-297.98 503.66,-306.16"/>
<polygon fill="black" stroke="black" points="501.03,-308.48 509.88,-314.3 506.59,-304.23 501.03,-308.48"/>
<text text-anchor="middle" x="465.5" y="-285.8" font-family="Helvetica,Arial,sans-serif" font-size="14.00">1053</text>
</g>
<!-- 7&#45;&gt;0 -->
<g id="edge14" class="edge">
<title>7&#45;&gt;0</title>
<path fill="none" stroke="black" d="M117.75,-153.88C111.29,-145.64 102.41,-135.44 93,-128 80.51,-118.12 64.98,-109.6 51.73,-103.24"/>
<polygon fill="black" stroke="black" points="53.1,-100.02 42.56,-99 50.16,-106.37 53.1,-100.02"/>
<text text-anchor="middle" x="77.5" y="-131.8" font-family="Helvetica,Arial,sans-serif" font-size="14.00">1435</text>
</g>
<!-- 7&#45;&gt;1 -->
<g id="edge15" class="edge">
<title>7&#45;&gt;1</title>
<path fill="none" stroke="black" d="M146.47,-163.42C168.43,-157.98 208.45,-150.42 242,-157 259.95,-160.52 279.01,-168.31 293.55,-175.19"/>
<polygon fill="black" stroke="black" points="292.31,-178.48 302.83,-179.75 295.4,-172.2 292.31,-178.48"/>
<text text-anchor="middle" x="224" y="-160.8" font-family="Helvetica,Arial,sans-serif" font-size="14.00">811</text>
</g>
<!-- 7&#45;&gt;6 -->
<g id="edge13" class="edge">
<title>7&#45;&gt;6</title>
<path fill="none" stroke="black" d="M134.81,-185.25C139.95,-200.73 149.51,-223.09 165,-237 173.74,-244.85 185.57,-250.01 196.26,-253.34"/>
<polygon fill="black" stroke="black" points="195.46,-256.75 206.03,-256 197.31,-250 195.46,-256.75"/>
<text text-anchor="middle" x="176.5" y="-252.8" font-family="Helvetica,Arial,sans-serif" font-size="14.00">837</text>
</g>
<!-- 5&#45;&gt;0 -->
<g id="edge26" class="edge">
<title>5&#45;&gt;0</title>
<path fill="none" stroke="black" d="M727.78,-225.02C721.34,-181.68 698.42,-75 629,-75 128,-75 128,-75 128,-75 102.76,-75 74.49,-79.57 53.65,-83.83"/>
<polygon fill="black" stroke="black" points="52.83,-80.43 43.78,-85.94 54.29,-87.27 52.83,-80.43"/>
<text text-anchor="middle" x="366.5" y="-78.8" font-family="Helvetica,Arial,sans-serif" font-size="14.00">343</text>
</g>
<!-- 5&#45;&gt;4 -->
<g id="edge23" class="edge">
<title>5&#45;&gt;4</title>
<path fill="none" stroke="black" d="M712.92,-245.09C707.23,-245.75 700.85,-246.45 695,-247 645.62,-251.68 588.18,-255.71 553.49,-258"/>
<polygon fill="black" stroke="black" points="552.81,-254.54 543.06,-258.68 553.27,-261.52 552.81,-254.54"/>
<text text-anchor="middle" x="628" y="-256.8" font-family="Helvetica,Arial,sans-serif" font-size="14.00">1106</text>
</g>
<!-- 5&#45;&gt;1 -->
<g id="edge25" class="edge">
<title>5&#45;&gt;1</title>
<path fill="none" stroke="black" d="M719.61,-228.97C702.98,-208.28 668.22,-172 629,-172 413,-172 413,-172 413,-172 390.3,-172 364.92,-176.69 346.42,-180.99"/>
<polygon fill="black" stroke="black" points="345.54,-177.6 336.65,-183.37 347.2,-184.4 345.54,-177.6"/>
<text text-anchor="middle" x="521" y="-175.8" font-family="Helvetica,Arial,sans-serif" font-size="14.00">879</text>
</g>
<!-- 5&#45;&gt;2 -->
<g id="edge24" class="edge">
<title>5&#45;&gt;2</title>
<path fill="none" stroke="black" d="M718.54,-256.21C711.94,-263.53 703.33,-272.61 695,-280 682.17,-291.39 677.68,-292.65 664,-303 659.67,-306.27 655.07,-309.8 650.67,-313.18"/>
<polygon fill="black" stroke="black" points="648.36,-310.54 642.58,-319.43 652.64,-316.08 648.36,-310.54"/>
<text text-anchor="middle" x="679.5" y="-306.8" font-family="Helvetica,Arial,sans-serif" font-size="14.00">1054</text>
</g>
<!-- 6&#45;&gt;1 -->
<g id="edge18" class="edge">
<title>6&#45;&gt;1</title>
<path fill="none" stroke="black" d="M235.16,-244.48C241.59,-236.02 250.47,-225.56 260,-218 269.86,-210.18 282.07,-203.5 292.75,-198.44"/>
<polygon fill="black" stroke="black" points="294.33,-201.57 302.01,-194.27 291.45,-195.19 294.33,-201.57"/>
<text text-anchor="middle" x="271.5" y="-221.8" font-family="Helvetica,Arial,sans-serif" font-size="14.00">954</text>
</g>
<!-- 6&#45;&gt;7 -->
<g id="edge16" class="edge">
<title>6&#45;&gt;7</title>
<path fill="none" stroke="black" d="M212.21,-245.18C205.56,-236.97 196.67,-226.53 188,-218 178.55,-208.7 175.08,-207.62 165,-199 160.26,-194.94 155.21,-190.53 150.46,-186.33"/>
<polygon fill="black" stroke="black" points="152.67,-183.62 142.87,-179.59 148.02,-188.85 152.67,-183.62"/>
<text text-anchor="middle" x="176.5" y="-221.8" font-family="Helvetica,Arial,sans-serif" font-size="14.00">837</text>
</g>
<!-- 6&#45;&gt;3 -->
<g id="edge17" class="edge">
<title>6&#45;&gt;3</title>
<path fill="none" stroke="black" d="M236.37,-272.11C242.81,-278.96 251.29,-287.12 260,-293 298.27,-318.82 310.58,-322.41 355,-335 409.16,-350.35 426.14,-360.65 481,-348 486.19,-346.8 491.48,-344.82 496.43,-342.57"/>
<polygon fill="black" stroke="black" points="498.04,-345.68 505.4,-338.07 494.9,-339.43 498.04,-345.68"/>
<text text-anchor="middle" x="366.5" y="-344.8" font-family="Helvetica,Arial,sans-serif" font-size="14.00">433</text>
</g>
<!-- 3&#45;&gt;9 -->
<g id="edge8" class="edge">
<title>3&#45;&gt;9</title>
<path fill="none" stroke="black" d="M503.52,-324.4C488.32,-319.53 465.78,-310.62 450,-297 440.9,-289.14 433.27,-278.35 427.47,-268.48"/>
<polygon fill="black" stroke="black" points="430.38,-266.5 422.5,-259.42 424.25,-269.87 430.38,-266.5"/>
<text text-anchor="middle" x="465.5" y="-318.8" font-family="Helvetica,Arial,sans-serif" font-size="14.00">1053</text>
</g>
<!-- 3&#45;&gt;6 -->
<g id="edge9" class="edge">
<title>3&#45;&gt;6</title>
<path fill="none" stroke="black" d="M503.21,-332.37C488.97,-334.71 468.04,-336.93 450,-334 374.72,-321.78 290.58,-287.98 249.82,-270.23"/>
<polygon fill="black" stroke="black" points="251.21,-267.01 240.65,-266.18 248.39,-273.42 251.21,-267.01"/>
<text text-anchor="middle" x="366.5" y="-319.8" font-family="Helvetica,Arial,sans-serif" font-size="14.00">433</text>
</g>
<!-- 2&#45;&gt;4 -->
<g id="edge27" class="edge">
<title>2&#45;&gt;4</title>
<path fill="none" stroke="black" d="M609.94,-330.45C595.77,-330.04 575.62,-327.56 561,-318 550.13,-310.89 541.53,-299.59 535.21,-288.84"/>
<polygon fill="black" stroke="black" points="538.28,-287.16 530.43,-280.05 532.13,-290.5 538.28,-287.16"/>
<text text-anchor="middle" x="576.5" y="-331.8" font-family="Helvetica,Arial,sans-serif" font-size="14.00">1364</text>
</g>
<!-- 2&#45;&gt;5 -->
<g id="edge28" class="edge">
<title>2&#45;&gt;5</title>
<path fill="none" stroke="black" d="M646.17,-331.02C660.61,-330.99 681.08,-328.74 695,-318 710.03,-306.41 718.86,-286.82 723.9,-270.56"/>
<polygon fill="black" stroke="black" points="727.39,-271.05 726.69,-260.48 720.65,-269.19 727.39,-271.05"/>
<text text-anchor="middle" x="679.5" y="-332.8" font-family="Helvetica,Arial,sans-serif" font-size="14.00">1054</text>
</g>
<!-- 8&#45;&gt;0 -->
<g id="edge22" class="edge">
<title>8&#45;&gt;0</title>
<path fill="none" stroke="black" d="M112.36,-10.8C98.15,-5.42 77.15,-0.48 62,-10 44.69,-20.88 34.88,-41.84 29.43,-59.71"/>
<polygon fill="black" stroke="black" points="26.01,-58.94 26.77,-69.51 32.77,-60.78 26.01,-58.94"/>
<text text-anchor="middle" x="77.5" y="-13.8" font-family="Helvetica,Arial,sans-serif" font-size="14.00">464</text>
</g>
</g>
</svg>
